<svg xmlns="http://www.w3.org/2000/svg" width="1040" height="900" viewBox="0 0 1040 900" role="img"><title>Ciclo de vida da ocorrência</title>
<defs><marker id="arrow" viewBox="0 0 10 10" refX="9" refY="5" markerWidth="8" markerHeight="8" orient="auto-start-reverse"><path d="M 0 0 L 10 5 L 0 10 z" fill="#263443"/></marker><marker id="inherit" viewBox="0 0 12 12" refX="11" refY="6" markerWidth="13" markerHeight="13" orient="auto"><path d="M 1 1 L 11 6 L 1 11 z" fill="white" stroke="#263443"/></marker></defs>
<rect width="1040" height="900" fill="white"/>
<text x="520" y="38" text-anchor="middle" font-family="DejaVu Sans, sans-serif" font-size="22" font-weight="bold" fill="#263443">
<tspan x="520" dy="0">Ciclo de vida da ocorrência</tspan>
</text>
<circle cx="260" cy="82" r="9" fill="#263443"/>
<rect x="135" y="135" width="250" height="70" rx="14" fill="#f5f8fc" stroke="#263443" stroke-width="1.6"/>
<text x="260" y="176" text-anchor="middle" font-family="DejaVu Sans, sans-serif" font-size="19" font-weight="normal" fill="#263443">
<tspan x="260" dy="0">Registrada</tspan>
</text>
<rect x="135" y="305" width="250" height="70" rx="14" fill="#f5f8fc" stroke="#263443" stroke-width="1.6"/>
<text x="260" y="346" text-anchor="middle" font-family="DejaVu Sans, sans-serif" font-size="19" font-weight="normal" fill="#263443">
<tspan x="260" dy="0">Em análise</tspan>
</text>
<rect x="135" y="495" width="250" height="70" rx="14" fill="#f5f8fc" stroke="#263443" stroke-width="1.6"/>
<text x="260" y="536" text-anchor="middle" font-family="DejaVu Sans, sans-serif" font-size="19" font-weight="normal" fill="#263443">
<tspan x="260" dy="0">Em andamento</tspan>
</text>
<rect x="135" y="685" width="250" height="70" rx="14" fill="#f5f8fc" stroke="#263443" stroke-width="1.6"/>
<text x="260" y="726" text-anchor="middle" font-family="DejaVu Sans, sans-serif" font-size="19" font-weight="normal" fill="#263443">
<tspan x="260" dy="0">Resolvida</tspan>
</text>
<rect x="625" y="495" width="250" height="70" rx="14" fill="#f5f8fc" stroke="#263443" stroke-width="1.6"/>
<text x="750" y="536" text-anchor="middle" font-family="DejaVu Sans, sans-serif" font-size="19" font-weight="normal" fill="#263443">
<tspan x="750" dy="0">Encerrada</tspan>
</text>
<path d="M260,91 V135" fill="none" stroke="#263443" stroke-width="1.5"/>
<polygon points="260.0,135.0 256.0,127.0 264.0,127.0" fill="#263443" stroke="#263443" stroke-width="1.3"/>
<text x="280" y="113" text-anchor="start" font-family="DejaVu Sans, sans-serif" font-size="14" font-weight="normal" fill="#263443">
<tspan x="280" dy="0">registrar / criar histórico</tspan>
</text>
<path d="M260,205 V305" fill="none" stroke="#263443" stroke-width="1.5"/>
<polygon points="260.0,305.0 256.0,297.0 264.0,297.0" fill="#263443" stroke="#263443" stroke-width="1.3"/>
<text x="278" y="255" text-anchor="start" font-family="DejaVu Sans, sans-serif" font-size="15" font-weight="normal" fill="#263443">
<tspan x="278" dy="0">iniciar análise</tspan>
</text>
<path d="M260,375 V495" fill="none" stroke="#263443" stroke-width="1.5"/>
<polygon points="260.0,495.0 256.0,487.0 264.0,487.0" fill="#263443" stroke="#263443" stroke-width="1.3"/>
<text x="278" y="438" text-anchor="start" font-family="DejaVu Sans, sans-serif" font-size="15" font-weight="normal" fill="#263443">
<tspan x="278" dy="0">iniciar atendimento</tspan>
</text>
<path d="M260,565 V685" fill="none" stroke="#263443" stroke-width="1.5"/>
<polygon points="260.0,685.0 256.0,677.0 264.0,677.0" fill="#263443" stroke="#263443" stroke-width="1.3"/>
<text x="278" y="618" text-anchor="start" font-family="DejaVu Sans, sans-serif" font-size="15" font-weight="normal" fill="#263443">
<tspan x="278" dy="0">concluir</tspan>
<tspan x="278" dy="20.25">[providência informada]</tspan>
</text>
<path d="M385,340 H750 V495" fill="none" stroke="#263443" stroke-width="1.5"/>
<polygon points="750.0,495.0 746.0,487.0 754.0,487.0" fill="#263443" stroke="#263443" stroke-width="1.3"/>
<text x="760" y="415" text-anchor="start" font-family="DejaVu Sans, sans-serif" font-size="15" font-weight="normal" fill="#263443">
<tspan x="760" dy="0">encerrar</tspan>
<tspan x="760" dy="20.25">[justificativa informada]</tspan>
</text>
<path d="M385,315 H460 V275 H260 V305" fill="none" stroke="#263443" stroke-width="1.5"/>
<polygon points="260.0,305.0 256.0,297.0 264.0,297.0" fill="#263443" stroke="#263443" stroke-width="1.3"/>
<text x="435" y="226" text-anchor="middle" font-family="DejaVu Sans, sans-serif" font-size="14" font-weight="normal" fill="#263443">
<tspan x="435" dy="0">transferir / atualizar</tspan>
<tspan x="435" dy="18.900000000000002">setor e histórico</tspan>
</text>
<circle cx="260" cy="795" r="12" fill="white" stroke="#263443" stroke-width="2"/>
<circle cx="260" cy="795" r="7" fill="#263443"/>
<path d="M260,755 V782" fill="none" stroke="#263443" stroke-width="1.5"/>
<polygon points="260.0,782.0 256.0,774.0 264.0,774.0" fill="#263443" stroke="#263443" stroke-width="1.3"/>
<circle cx="750" cy="635" r="12" fill="white" stroke="#263443" stroke-width="2"/>
<circle cx="750" cy="635" r="7" fill="#263443"/>
<path d="M750,565 V622" fill="none" stroke="#263443" stroke-width="1.5"/>
<polygon points="750.0,622.0 746.0,614.0 754.0,614.0" fill="#263443" stroke="#263443" stroke-width="1.3"/>
<text x="520" y="852" text-anchor="middle" font-family="DejaVu Sans, sans-serif" font-size="15" font-weight="normal" fill="#263443">
<tspan x="520" dy="0">Toda mudança de situação gera histórico.</tspan>
<tspan x="520" dy="20.25">Reabertura ainda não integra esta versão.</tspan>
</text>
</svg>